<svg width="300" height="300" viewBox="0 0 300 300" fill="none" xmlns="http://www.w3.org/2000/svg">
<path d="M194.348 127.751C195.961 120.996 202.258 111.655 203.062 104.749C199.643 102.463 196.822 103.943 193.523 98.0416C189.753 91.2951 184.263 61.9725 189.63 55.1683C196.914 45.9347 232.645 41.0641 244.921 39.6982C265.919 37.8886 267.716 66.1274 267.326 81.2129C267.131 88.7528 265.623 95.1096 258.764 99.1297C252.49 102.806 240.528 104.938 233.273 105.54C221.938 106.481 226.06 104.13 217.806 111.812L199.506 128.956C197.296 131.059 195.214 130.646 194.348 127.751ZM244.921 44.6181C235.636 45.0499 199.789 50.7895 193.595 57.6166C189.136 62.5321 194.988 94.4487 199.509 98.2051C202.98 101.089 209.18 98.2825 209.578 101.516C209.737 102.813 205.887 111.246 205.11 113.159L204.284 115.242L214.789 105.156C222.053 98.2139 219.323 99.6494 229.284 98.7776C235.994 98.1899 248.76 96.1362 254.499 92.617C259.874 89.3223 259.761 83.5256 259.859 77.8397C259.978 70.9291 258.713 52.0364 253.829 46.9968C251.587 44.6836 248.005 44.185 244.921 44.6181Z" fill="#253017"/>
<path d="M113.668 64.01C118.987 53.7639 130.769 48.0511 141.99 47.3965C143.21 47.2892 144.449 47.3665 145.669 47.4431C169.64 48.9496 187.605 66.9971 185.942 91.4787C185.444 98.7959 182.477 110.992 176.63 116.075C173.553 127.541 172.128 135.607 165.455 146.418C163.543 149.515 161.06 152.182 159.131 155.235L158.985 155.468C161.15 164.59 165.362 164.342 173.535 167.277C183.598 170.892 201.642 177.162 207.695 184.705C213.094 191.434 217.215 215.854 218.056 224.93C218.78 232.739 219.362 242.934 212.493 248.318C198.68 259.145 131.445 261.21 108.287 258.278C97.0407 257.034 85.6495 254.697 74.8155 251.455C69.6974 249.924 66.8673 249.923 64.772 244.409C60.4232 232.964 65.1728 199.369 70.8159 186.941C75.3523 176.952 103.792 169.131 113.992 165.331C117.614 163.982 119.796 162.332 121.419 158.78C111.983 151.069 105.934 135.679 104.174 123.629C103.965 122.194 103.858 120.742 103.372 119.365C98.9216 116.493 95.5226 110.873 93.3593 106.124C86.0954 90.1744 91.5605 74.5961 107.562 67.3568C100.526 66.1838 95.4148 66.7229 89.5466 70.6357C84.8339 73.7781 82.3765 68.6072 89.6251 64.7266C96.9792 60.7897 105.979 61.6744 113.668 64.01ZM171.482 68.084C153.727 43.3946 109.215 56.6789 120.515 75.1533C122.791 81.2207 129.107 85.0199 134.544 87.8682C144.869 91.6967 152.236 91.6861 163.053 91.6721C162.327 90.6953 161.549 89.5563 160.413 89.0219C156.817 86.2926 145.59 85.8379 149.08 81.1715C150.347 79.4775 153.43 80.3359 155.123 80.674C162.573 82.1617 168.518 85.951 171.982 92.7719C174.038 96.5805 174.745 100.729 175.37 104.953C176.802 100.022 179.395 91.0809 178.585 86.0699C178.525 80.6658 175.172 72.0607 171.482 68.084ZM116.441 79.8115C114.884 76.4559 113.731 72.9268 113.125 69.2705C93.8228 77.7836 90.8497 91.6029 101.274 109.686C101.714 111.103 102.646 112.507 103.372 113.802C103.34 110.88 102.979 100.473 104.922 98.5867C107.165 96.4088 108.65 99.1692 108.287 101.979C108.101 103.236 108.236 104.639 108.287 105.908C115.581 102.371 121.122 97.0076 125.029 89.8979L123.97 89.0219C120.946 86.1824 118.666 83.2961 116.441 79.8115ZM168.167 173.703C167.253 173.326 166.314 172.868 165.369 172.587C151.77 202.301 148.39 220.101 144.973 252.337C146.588 252.174 148.256 252.084 149.855 251.823C159.694 251.444 170.534 250.262 180.315 248.678L180.324 224.975C180.325 222.361 179.947 215 180.587 213C181.775 209.287 186.214 210.455 187.357 213.498C188.005 223.489 188.17 237.053 187.651 247.237C188.528 247.233 189.406 247.219 190.282 247.237C195.836 245.458 206.998 245.242 209.282 239.11C213.233 228.504 207.649 201.987 203.394 192.681C199.015 183.102 177.554 177.19 168.167 173.703ZM115.923 177.808C115.44 176.195 114.945 174.586 114.191 173.073C106.696 175.74 80.8993 183.496 77.7019 190.261C72.6698 200.909 68.8466 230.363 71.5378 240.271C71.6954 241.137 71.9702 241.935 72.3364 242.733C76.0114 244.478 85.4814 246.635 89.3626 247.237C89.6825 238.257 88.4843 228.01 88.4515 218.753C88.4427 216.438 87.7161 213.066 89.072 211.001C91.2452 207.691 95.5366 209.444 95.996 213.498C96.1788 220.635 96.2468 227.785 96.5954 234.916L97.1468 244.637C97.2206 246.186 97.3671 247.778 97.2927 249.326C97.9671 249.325 98.6491 249.3 99.3224 249.326C111.056 251.942 127.066 252.351 138.955 252.337C137.16 233.677 129.428 204.944 121.269 189.048C119.401 185.409 117.247 181.891 115.976 177.976L115.923 177.808ZM128.584 92.7719C122.714 103.889 119.017 105.845 107.562 110.407C109.062 125.189 114.692 143.413 126.59 153.133C132.339 157.829 140.051 159.422 146.569 155.468C161.344 145.88 173.561 116.802 166.54 98.9676C156.299 100.296 144.138 99.7609 134.584 95.9834C132.437 95.1356 130.651 93.6736 128.584 92.7719ZM152.276 161.109C145.523 165.237 135.718 167.251 128.584 162.899C124.894 167.144 124.718 167.489 120.515 171.227C122.603 175.536 126.517 178.826 130.579 181.216C142.127 187.309 152.066 186.688 158.305 174.482C158.978 173.167 159.583 171.718 160.413 170.501C158.06 168.958 155.442 167.133 154.05 164.601C153.65 163.875 152.882 161.305 152.276 161.109ZM125.498 187.319C132.617 202.094 138.813 221.089 141.505 237.491C142.603 233.788 142.829 229.913 143.558 226.141C145.607 213.834 148.989 202.187 153 190.421C141.799 195.013 135.036 191.209 125.498 187.319Z" fill="#253017"/>
<path d="M208.618 69.8761C206.875 71.2337 202.386 75.8046 201.541 70.9525C201.182 68.8876 204.468 67.3589 205.823 66.4115C214.396 60.4173 223.354 57.9987 233.6 56.6903C235.911 56.5032 245.159 55.7431 243.114 60.4923C242.216 62.5794 238.734 61.5482 237.073 61.52C229.444 61.3923 221.38 63.497 214.574 66.7929C212.586 67.755 210.682 69.1361 208.618 69.8761Z" fill="#253017"/>
<path d="M120.515 75.1532C123.839 56.3932 154.768 55.543 168.014 65.4694C169.185 66.3471 170.103 67.5049 171.482 68.0838C175.172 72.0606 178.525 80.6657 178.585 86.0698C178.501 88.9456 174.36 91.0491 171.982 92.7717C168.518 85.9508 162.573 82.1616 155.123 80.6739C153.43 80.3358 150.347 79.4774 149.08 81.1713C145.59 85.8377 156.817 86.2924 160.413 89.0217C157.815 91.9268 138.587 86.6862 134.544 87.868C129.107 85.0198 122.791 81.2206 120.515 75.1532Z" fill="#ABD27A"/>
<path d="M215.691 76.185C214.208 77.1078 207.769 83.2414 207.388 77.5256C207.257 75.5709 210.762 73.6414 212.096 72.7555C219.104 68.0996 226.466 65.9604 234.755 65.0563C237.033 64.8641 247.216 63.9653 246.117 68.4365C245.391 71.3873 240.244 69.8393 238.107 69.8574C230.243 69.9225 222.387 72.0506 215.691 76.185Z" fill="#253017"/>
<path d="M224.65 81.1569C222.861 81.9802 219.33 85.6089 217.323 84.1991C210.188 79.1847 232.062 73.7255 234.755 73.3892C236.816 73.1308 247.536 72.8899 245.885 77.2628C244.8 80.1333 242.139 78.7048 239.837 78.4288C234.585 77.7983 229.433 79.0739 224.65 81.1569Z" fill="#253017"/>
<path d="M116.44 79.8125C118.666 83.2971 120.946 86.1834 123.97 89.0228C122.039 90.548 120.762 92.4822 119.147 94.3033C116.556 97.2248 108.734 103.933 108.287 101.98C108.65 99.1701 107.165 96.4098 104.922 98.5877C102.979 100.474 103.34 110.881 103.372 113.803C102.646 112.508 101.713 111.104 101.274 109.687C101.312 108.741 100.827 107.446 100.655 106.49C98.2529 93.1502 105.572 86.2988 116.44 79.8125Z" fill="#ABD27A"/>
<path d="M231.9 87.8684C225.81 90.9317 222.614 84.3293 234.202 82.2217C236.244 81.9656 241.855 81.9205 240.134 85.6377C239.254 87.5408 234.746 86.8155 231.9 87.8684Z" fill="#253017"/>
<path d="M178.585 86.0703C179.395 91.0813 176.802 100.023 175.37 104.953C174.745 100.729 174.037 96.5809 171.982 92.7723C174.36 91.0496 178.501 88.9461 178.585 86.0703Z" fill="#508826"/>
<path d="M134.544 87.8681C138.587 86.6863 157.815 91.9269 160.413 89.0218C161.549 89.5562 162.327 90.6953 163.053 91.672C152.236 91.6861 144.869 91.6966 134.544 87.8681Z" fill="#508826"/>
<path d="M123.97 89.0215L125.029 89.8975C121.122 97.0072 115.581 102.371 108.287 105.908C108.236 104.638 108.101 103.235 108.287 101.978C108.734 103.932 116.556 97.2234 119.147 94.3019C120.762 92.4809 122.039 90.5467 123.97 89.0215Z" fill="#508826"/>
<path d="M168.167 173.703C177.554 177.19 199.015 183.102 203.394 192.681C207.649 201.987 213.233 228.504 209.282 239.11C206.998 245.241 195.836 245.458 190.281 247.237C189.738 241.933 190.815 229.309 191.181 223.608C191.353 220.942 191.823 218.321 191.569 215.647C190.673 213.945 189.088 213.833 187.356 213.498C186.214 210.455 181.775 209.287 180.586 213C179.947 214.999 180.325 222.361 180.323 224.974L180.315 248.677C170.534 250.262 159.694 251.444 149.855 251.823C149.588 247.997 150.386 244.33 150.811 240.55C153.499 216.632 159.971 196.356 168.167 173.703Z" fill="#ABD27A"/>
<path d="M71.5376 240.271C71.9044 238.839 71.7731 237.011 71.861 235.512C72.3907 226.509 76.8872 204.254 81.3356 195.808C85.7196 187.486 106.059 180.86 115.922 177.809L115.976 177.977C117.247 181.891 119.4 185.41 121.269 189.049C129.428 204.945 137.16 233.678 138.954 252.337C127.066 252.352 111.056 251.943 99.3222 249.327L99.3198 225.748C99.3163 222.647 99.6315 218.602 99.3222 215.648C98.5628 213.875 97.9604 213.523 95.9958 213.499C95.5364 209.445 91.245 207.691 89.0718 211.001C87.7159 213.067 88.4425 216.439 88.4513 218.754C88.4841 228.011 89.6823 238.258 89.3624 247.237C85.4811 246.636 76.0112 244.478 72.3362 242.733C71.97 241.935 71.6952 241.138 71.5376 240.271Z" fill="#ABD27A"/>
</svg>
