<svg width="19" height="20" viewBox="0 0 19 20" fill="none" xmlns="http://www.w3.org/2000/svg">
<path d="M5.34904 4.18605C4.96765 4.18605 4.65137 3.86977 4.65137 3.48837V0.697674C4.65137 0.316279 4.96765 0 5.34904 0C5.73044 0 6.04672 0.316279 6.04672 0.697674V3.48837C6.04672 3.86977 5.73044 4.18605 5.34904 4.18605Z" fill="#253017"/>
<path d="M12.7909 4.18605C12.4095 4.18605 12.0933 3.86977 12.0933 3.48837V0.697674C12.0933 0.316279 12.4095 0 12.7909 0C13.1723 0 13.4886 0.316279 13.4886 0.697674V3.48837C13.4886 3.86977 13.1723 4.18605 12.7909 4.18605Z" fill="#253017"/>
<path d="M5.81402 12.326C5.69309 12.326 5.57216 12.2981 5.46053 12.2516C5.3396 12.2051 5.24658 12.14 5.15356 12.0562C4.98612 11.8795 4.88379 11.6469 4.88379 11.3958C4.88379 11.2748 4.9117 11.1539 4.95821 11.0423C5.00472 10.9307 5.06984 10.8283 5.15356 10.7353C5.24658 10.6516 5.3396 10.5865 5.46053 10.5399C5.79542 10.4004 6.21402 10.4749 6.47449 10.7353C6.64193 10.9121 6.74425 11.1539 6.74425 11.3958C6.74425 11.4516 6.73495 11.5167 6.72565 11.5818C6.71635 11.6376 6.69774 11.6935 6.66983 11.7493C6.65123 11.8051 6.62333 11.8609 6.58612 11.9167C6.55821 11.9632 6.5117 12.0097 6.47449 12.0562C6.29774 12.2237 6.05588 12.326 5.81402 12.326Z" fill="#253017"/>
<path d="M9.06988 12.3262C8.94895 12.3262 8.82802 12.2983 8.71639 12.2518C8.59546 12.2053 8.50244 12.1402 8.40942 12.0565C8.24197 11.8797 8.13965 11.6472 8.13965 11.396C8.13965 11.2751 8.16756 11.1541 8.21407 11.0425C8.26058 10.9309 8.3257 10.8286 8.40942 10.7355C8.50244 10.6518 8.59546 10.5867 8.71639 10.5402C9.05128 10.3913 9.46988 10.4751 9.73035 10.7355C9.89779 10.9123 10.0001 11.1541 10.0001 11.396C10.0001 11.4518 9.99081 11.5169 9.98151 11.5821C9.97221 11.6379 9.9536 11.6937 9.92569 11.7495C9.90709 11.8053 9.87919 11.8611 9.84198 11.9169C9.81407 11.9634 9.76755 12.0099 9.73035 12.0565C9.5536 12.2239 9.31174 12.3262 9.06988 12.3262Z" fill="#253017"/>
<path d="M12.3257 12.3262C12.2048 12.3262 12.0839 12.2983 11.9723 12.2518C11.8513 12.2053 11.7583 12.1402 11.6653 12.0565C11.6281 12.0099 11.5909 11.9634 11.5536 11.9169C11.5164 11.8611 11.4885 11.8053 11.4699 11.7495C11.442 11.6937 11.4234 11.6379 11.4141 11.5821C11.4048 11.5169 11.3955 11.4518 11.3955 11.396C11.3955 11.1541 11.4978 10.9123 11.6653 10.7355C11.7583 10.6518 11.8513 10.5867 11.9723 10.5402C12.3164 10.3913 12.7257 10.4751 12.9862 10.7355C13.1536 10.9123 13.256 11.1541 13.256 11.396C13.256 11.4518 13.2467 11.5169 13.2374 11.5821C13.2281 11.6379 13.2095 11.6937 13.1816 11.7495C13.1629 11.8053 13.135 11.8611 13.0978 11.9169C13.0699 11.9634 13.0234 12.0099 12.9862 12.0565C12.8095 12.2239 12.5676 12.3262 12.3257 12.3262Z" fill="#253017"/>
<path d="M5.81402 15.5813C5.69309 15.5813 5.57216 15.5534 5.46053 15.5068C5.3489 15.4603 5.24658 15.3952 5.15356 15.3115C4.98612 15.1347 4.88379 14.8929 4.88379 14.651C4.88379 14.5301 4.9117 14.4092 4.95821 14.2975C5.00472 14.1766 5.06984 14.0743 5.15356 13.9906C5.49774 13.6464 6.1303 13.6464 6.47449 13.9906C6.64193 14.1673 6.74425 14.4092 6.74425 14.651C6.74425 14.8929 6.64193 15.1347 6.47449 15.3115C6.29774 15.4789 6.05588 15.5813 5.81402 15.5813Z" fill="#253017"/>
<path d="M9.06988 15.5813C8.82802 15.5813 8.58616 15.4789 8.40942 15.3115C8.24197 15.1347 8.13965 14.8929 8.13965 14.651C8.13965 14.5301 8.16756 14.4092 8.21407 14.2975C8.26058 14.1766 8.3257 14.0743 8.40942 13.9906C8.7536 13.6464 9.38616 13.6464 9.73035 13.9906C9.81407 14.0743 9.87918 14.1766 9.92569 14.2975C9.9722 14.4092 10.0001 14.5301 10.0001 14.651C10.0001 14.8929 9.89779 15.1347 9.73035 15.3115C9.5536 15.4789 9.31174 15.5813 9.06988 15.5813Z" fill="#253017"/>
<path d="M12.3257 15.582C12.0839 15.582 11.842 15.4797 11.6653 15.3122C11.5816 15.2285 11.5164 15.1262 11.4699 15.0053C11.4234 14.8936 11.3955 14.7727 11.3955 14.6518C11.3955 14.5308 11.4234 14.4099 11.4699 14.2983C11.5164 14.1773 11.5816 14.075 11.6653 13.9913C11.8792 13.7774 12.2048 13.675 12.5025 13.7401C12.5676 13.7494 12.6234 13.768 12.6792 13.7959C12.735 13.8145 12.7909 13.8425 12.8467 13.8797C12.8932 13.9076 12.9397 13.9541 12.9862 13.9913C13.1536 14.1681 13.256 14.4099 13.256 14.6518C13.256 14.8936 13.1536 15.1355 12.9862 15.3122C12.8095 15.4797 12.5676 15.582 12.3257 15.582Z" fill="#253017"/>
<path d="M16.977 7.99105H1.16301C0.781611 7.99105 0.465332 7.67477 0.465332 7.29338C0.465332 6.91198 0.781611 6.5957 1.16301 6.5957H16.977C17.3584 6.5957 17.6746 6.91198 17.6746 7.29338C17.6746 7.67477 17.3584 7.99105 16.977 7.99105Z" fill="#253017"/>
<path d="M12.7907 19.9992H5.34884C1.95349 19.9992 0 18.0457 0 14.6503V6.74337C0 3.34802 1.95349 1.39453 5.34884 1.39453H12.7907C16.186 1.39453 18.1395 3.34802 18.1395 6.74337V14.6503C18.1395 18.0457 16.186 19.9992 12.7907 19.9992ZM5.34884 2.78988C2.68837 2.78988 1.39535 4.0829 1.39535 6.74337V14.6503C1.39535 17.3108 2.68837 18.6038 5.34884 18.6038H12.7907C15.4512 18.6038 16.7442 17.3108 16.7442 14.6503V6.74337C16.7442 4.0829 15.4512 2.78988 12.7907 2.78988H5.34884Z" fill="#253017"/>
</svg>
