<svg width="6" height="11" viewBox="0 0 6 11" fill="none" xmlns="http://www.w3.org/2000/svg">
<path d="M0.459889 10.6667C0.342994 10.6667 0.2261 10.6236 0.133814 10.5313C-0.0446047 10.3529 -0.0446047 10.0576 0.133814 9.87916L4.14516 5.86782C4.44047 5.57251 4.44047 5.09262 4.14516 4.79731L0.133814 0.785965C-0.0446047 0.607546 -0.0446047 0.312233 0.133814 0.133814C0.312233 -0.0446047 0.607546 -0.0446047 0.785965 0.133814L4.79731 4.14516C5.11108 4.45893 5.2895 4.88344 5.2895 5.33256C5.2895 5.78169 5.11723 6.2062 4.79731 6.51997L0.785965 10.5313C0.693679 10.6174 0.576784 10.6667 0.459889 10.6667Z" fill="#69735D"/>
</svg>
