<svg width="24" height="24" viewBox="0 0 24 24" fill="none" xmlns="http://www.w3.org/2000/svg">
<path d="M15.3102 4C15.4855 4 15.6609 4.0646 15.7993 4.20303C16.0669 4.47066 16.0669 4.91363 15.7993 5.18126L9.78226 11.1983C9.33929 11.6412 9.33929 12.3611 9.78226 12.804L15.7993 18.8211C16.0669 19.0887 16.0669 19.5317 15.7993 19.7993C15.5317 20.0669 15.0887 20.0669 14.8211 19.7993L8.80404 13.7823C8.33338 13.3116 8.06575 12.6748 8.06575 12.0012C8.06575 11.3275 8.32415 10.6907 8.80404 10.22L14.8211 4.20303C14.9595 4.07383 15.1348 4 15.3102 4Z" fill="#69735D"/>
</svg>
