<svg width="24" height="24" viewBox="0 0 24 24" fill="none" xmlns="http://www.w3.org/2000/svg">
<path d="M12 8.16992C14.1138 8.16996 15.8301 9.88617 15.8301 12C15.83 14.1138 14.1138 15.83 12 15.8301C9.88617 15.8301 8.16996 14.1138 8.16992 12C8.16992 9.88614 9.88614 8.16992 12 8.16992ZM12 8.66992C10.1639 8.66992 8.66992 10.1639 8.66992 12C8.66996 13.8361 10.1639 15.3301 12 15.3301C13.8361 15.33 15.33 13.8361 15.3301 12C15.3301 10.1639 13.8361 8.66996 12 8.66992Z" fill="#253017" stroke="black"/>
<path d="M12 3.48047C15.5411 3.48047 18.9476 5.55809 21.3184 9.26953L21.3193 9.27051C21.7864 9.99751 22.0352 10.9837 22.0352 11.9971C22.0351 13.0102 21.7861 13.9989 21.3184 14.7314C18.9476 18.4429 15.5411 20.5205 12 20.5205C8.44867 20.5205 5.04244 18.4426 2.67188 14.7314L2.6709 14.7305L2.50586 14.4463C2.1453 13.7567 1.95508 12.8908 1.95508 12.0039C1.95513 10.9907 2.20409 10.0021 2.67188 9.26953L2.6709 9.26855C5.05182 5.557 8.45927 3.4805 12 3.48047ZM12 3.98047C8.55694 3.9805 5.32587 6.04765 3.09961 9.54102C2.6593 10.2279 2.45808 11.1313 2.45801 12C2.45801 12.8681 2.65905 13.7712 3.09863 14.458V14.459C5.32492 17.953 8.55658 20.0205 12 20.0205C15.4433 20.0205 18.6741 17.9527 20.9004 14.459L20.9014 14.46C21.3416 13.773 21.543 12.8687 21.543 12C21.5429 11.1314 21.3415 10.2279 20.9014 9.54102H20.9004C18.6741 6.04767 15.4431 3.98047 12 3.98047Z" fill="#253017" stroke="black"/>
</svg>
