<svg width="24" height="24" viewBox="0 0 24 24" fill="none" xmlns="http://www.w3.org/2000/svg">
<path d="M12 8.17004C14.1138 8.17009 15.8301 9.88629 15.8301 12.0001C15.83 14.1139 14.1138 15.8302 12 15.8302C9.88617 15.8302 8.16996 14.1139 8.16992 12.0001C8.16992 9.88626 9.88614 8.17004 12 8.17004ZM12 8.67004C10.1639 8.67004 8.66992 10.164 8.66992 12.0001C8.66996 13.8362 10.1639 15.3302 12 15.3302C13.8361 15.3302 15.33 13.8362 15.3301 12.0001C15.3301 10.164 13.8361 8.67009 12 8.67004Z" fill="#253017" stroke="black"/>
<path d="M12 3.47998C15.5411 3.47998 18.9476 5.5576 21.3184 9.26904L21.3193 9.27002C21.7864 9.99703 22.0352 10.9832 22.0352 11.9966C22.0351 13.0097 21.7861 13.9984 21.3184 14.731C18.9476 18.4424 15.5411 20.52 12 20.52C8.44867 20.52 5.04244 18.4421 2.67188 14.731L2.6709 14.73L2.50586 14.4458C2.1453 13.7562 1.95508 12.8903 1.95508 12.0034C1.95513 10.9903 2.20409 10.0016 2.67188 9.26904L2.6709 9.26807C5.05182 5.55652 8.45927 3.48001 12 3.47998ZM12 3.97998C8.55694 3.98001 5.32587 6.04716 3.09961 9.54053C2.6593 10.2274 2.45808 11.1308 2.45801 11.9995C2.45801 12.8676 2.65905 13.7707 3.09863 14.4575V14.4585C5.32492 17.9525 8.55658 20.02 12 20.02C15.4433 20.02 18.6741 17.9522 20.9004 14.4585L20.9014 14.4595C21.3416 13.7725 21.543 12.8683 21.543 11.9995C21.5429 11.1309 21.3415 10.2274 20.9014 9.54053H20.9004C18.6741 6.04718 15.4431 3.97998 12 3.97998Z" fill="#253017" stroke="black"/>
</svg>
