<svg width="20" height="20" viewBox="0 0 20 20" fill="none" xmlns="http://www.w3.org/2000/svg">
<path d="M6.82571 20H6.95229C11.2756 20 13.3593 18.296 13.7196 14.4791C13.7585 14.0798 13.4664 13.7196 13.0574 13.6806C12.668 13.6417 12.298 13.9435 12.259 14.3427C11.9766 17.4002 10.5355 18.5394 6.94255 18.5394H6.81597C2.85297 18.5394 1.45083 17.1373 1.45083 13.1743V6.82571C1.45083 2.86271 2.85297 1.46056 6.81597 1.46056H6.94255C10.555 1.46056 11.9961 2.61928 12.259 5.73515C12.3077 6.13437 12.6485 6.43622 13.0574 6.39727C13.4664 6.36806 13.7585 6.00779 13.7293 5.60857C13.3982 1.7332 11.3048 0 6.95229 0H6.82571C2.04479 0 0 2.04479 0 6.82571V13.1743C0 17.9552 2.04479 20 6.82571 20Z" fill="#253017"/>
<path d="M7.05889 10.7301H18.1397C18.5389 10.7301 18.87 10.399 18.87 9.99981C18.87 9.60059 18.5389 9.26953 18.1397 9.26953H7.05889C6.65967 9.26953 6.32861 9.60059 6.32861 9.99981C6.32861 10.399 6.65967 10.7301 7.05889 10.7301Z" fill="#253017"/>
<path d="M15.9681 13.9918C16.1531 13.9918 16.3381 13.9236 16.4842 13.7775L19.7461 10.5156C20.0285 10.2332 20.0285 9.76585 19.7461 9.48348L16.4842 6.22155C16.2018 5.93917 15.7344 5.93917 15.452 6.22155C15.1697 6.50392 15.1697 6.9713 15.452 7.25368L18.1979 9.99954L15.452 12.7454C15.1697 13.0278 15.1697 13.4952 15.452 13.7775C15.5884 13.9236 15.7831 13.9918 15.9681 13.9918Z" fill="#253017"/>
</svg>
