<svg width="20" height="20" viewBox="0 0 20 20" fill="none" xmlns="http://www.w3.org/2000/svg">
<path d="M9.97217 20C9.3321 20 8.72913 19.6753 8.30241 19.1095L6.91095 17.2542C6.88312 17.2171 6.7718 17.1707 6.72542 17.1614H6.2616C2.39332 17.1614 0 16.1132 0 10.8998V6.2616C0 2.16141 2.16141 0 6.2616 0H13.6827C17.7829 0 19.9443 2.16141 19.9443 6.2616V10.8998C19.9443 15 17.7829 17.1614 13.6827 17.1614H13.2189C13.1447 17.1614 13.0798 17.1985 13.0334 17.2542L11.6419 19.1095C11.2152 19.6753 10.6122 20 9.97217 20ZM6.2616 1.39147C2.94063 1.39147 1.39147 2.94063 1.39147 6.2616V10.8998C1.39147 15.0928 2.82931 15.7699 6.2616 15.7699H6.72542C7.19852 15.7699 7.73655 16.039 8.02412 16.4193L9.41558 18.2746C9.74026 18.7013 10.2041 18.7013 10.5288 18.2746L11.9202 16.4193C12.2263 16.0111 12.7087 15.7699 13.2189 15.7699H13.6827C17.0037 15.7699 18.5529 14.2208 18.5529 10.8998V6.2616C18.5529 2.94063 17.0037 1.39147 13.6827 1.39147H6.2616Z" fill="#253017"/>
<path d="M14.6108 6.95787H5.3344C4.95407 6.95787 4.63867 6.64247 4.63867 6.26214C4.63867 5.88181 4.95407 5.56641 5.3344 5.56641H14.6108C14.9912 5.56641 15.3066 5.88181 15.3066 6.26214C15.3066 6.64247 14.9912 6.95787 14.6108 6.95787Z" fill="#253017"/>
<path d="M10.9003 11.5946H5.3344C4.95407 11.5946 4.63867 11.2792 4.63867 10.8989C4.63867 10.5185 4.95407 10.2031 5.3344 10.2031H10.9003C11.2806 10.2031 11.596 10.5185 11.596 10.8989C11.596 11.2792 11.2806 11.5946 10.9003 11.5946Z" fill="#253017"/>
</svg>
